<?xml version="1.0" encoding="utf-8"?>
<!-- Generator: Adobe Illustrator 19.2.1, SVG Export Plug-In . SVG Version: 6.00 Build 0)  -->
<svg version="1.1" id="Capa_1" xmlns="http://www.w3.org/2000/svg" xmlns:xlink="http://www.w3.org/1999/xlink" x="0px" y="0px"
	 viewBox="0 0 841.9 595.3" style="enable-background:new 0 0 841.9 595.3;" xml:space="preserve">
<style type="text/css">
	.st0{fill:#FFFFFF;}
	.st1{fill:#727176;}
	.st2{fill:#00388A;}
</style>
<g>
	<rect x="44.6" y="-2.7" class="st0" width="725.5" height="604"/>
	<g>
		<title>Logo</title>
		<path class="st1" d="M77.3,548.2v25.4h15.5v5.3H73.6v-31h5.3L77.3,548.2z"/>
		<path class="st1" d="M117.4,548.2v17.7c1,6.4-3.4,12.5-9.8,13.5c-0.7,0.1-1.3,0.2-2,0.1c-6.7,0.1-12.1-5.3-12.2-12
			c0-0.6,0-1.1,0.1-1.7v-17.7h5.3v17.7c-0.7,3.9,1.9,7.6,5.8,8.3c0.4,0.1,0.9,0.1,1.4,0.1c3.9-0.1,7-3.4,6.9-7.3c0-0.3,0-0.7-0.1-1
			v-17.7h5.3H117.4z"/>
		<path class="st1" d="M123.9,578.9v-31h5v31H123.9z"/>
		<path class="st1" d="M150.3,555.6c-1.4-2.2-3.9-3.5-6.5-3.4c-2.5-0.5-5,1.1-5.5,3.6c0,0.1-0.1,0.3-0.1,0.4c0,2.8,2.8,3.4,6.2,3.7
			c5.4-1,10.6,2.6,11.5,8c1,5.4-2.6,10.6-8,11.5c-1.2,0.2-2.3,0.2-3.5,0c-5.2,0.6-10.1-2.5-11.8-7.4l4.3-2.5c1.2,3.2,4.4,5.2,7.8,5
			c2.9,0.5,5.6-1.4,6.1-4.2c0-0.1,0-0.3,0.1-0.4c-0.5-3-3.2-5-6.2-4.7c-5.3,0.7-10.1-3-10.8-8.3c0-0.3-0.1-0.7-0.1-1
			c0.3-5.3,4.9-9.3,10.2-9c0.1,0,0.3,0,0.4,0c4.6-0.4,8.9,2.1,10.9,6.2L150.3,555.6z"/>
		<path class="st1" d="M185.9,573h-14.3l-2.5,5.9h-5l12.4-31h5.6l12.4,31h-5.6L185.9,573z M178.8,554.4l-5,13h12.1L178.8,554.4z"/>
		<path class="st1" d="M202.4,548.2v25.4H217v5.3h-19.2v-31h5.3L202.4,548.2z"/>
		<path class="st1" d="M246.2,563.4c1.2,7.8-4.2,15.1-12,16.2c-7.8,1.2-15.1-4.2-16.2-12c-0.2-1.4-0.2-2.8,0-4.2
			c-1.2-7.8,4.2-15.1,12-16.2c7.8-1.2,15.1,4.2,16.2,12C246.4,560.6,246.4,562,246.2,563.4z M223.2,563.4c0,5,4,9,9,9c5,0,9-4,9-9
			c1.3-5-1.6-10.1-6.6-11.4c-5-1.3-10.1,1.6-11.4,6.6C222.8,560.2,222.8,561.8,223.2,563.4z"/>
		<path class="st1" d="M267.9,548.2h5.3v31H270l-14.3-20.8v20.8h-5.3v-31h4l13.3,18.9v-19.2V548.2z"/>
		<path class="st1" d="M295.2,555.6c-1.4-2.2-3.9-3.5-6.5-3.4c-2.5-0.5-5,1.1-5.5,3.6c0,0.1-0.1,0.3-0.1,0.4c0,2.8,2.8,3.4,6.2,3.7
			c5.4-1,10.6,2.6,11.5,8c1,5.4-2.6,10.6-8,11.5c-1.2,0.2-2.3,0.2-3.5,0c-5.2,0.6-10.1-2.5-11.8-7.4l4.3-2.5c1.2,3.2,4.4,5.2,7.8,5
			c2.9,0.5,5.6-1.4,6.1-4.2c0-0.1,0-0.3,0.1-0.4c-0.5-3-3.2-5-6.2-4.7c-5.3,0.7-10.1-3-10.8-8.3c0-0.3-0.1-0.7-0.1-1
			c0.3-5.3,4.9-9.3,10.2-9c0.1,0,0.3,0,0.4,0c4.6-0.4,8.9,2.1,10.9,6.2L295.2,555.6z"/>
		<path class="st1" d="M330.9,563.4c1.2,7.8-4.2,15.1-12,16.2c-7.8,1.2-15.1-4.2-16.2-12c-0.2-1.4-0.2-2.8,0-4.2
			c-1.2-7.8,4.2-15.1,12-16.2c7.8-1.2,15.1,4.2,16.2,12C331.1,560.6,331.1,562,330.9,563.4z M307.9,563.4c0,5,4,9,9,9c5,0,9-4,9-9
			c1.3-5-1.6-10.1-6.6-11.4c-5-1.3-10.1,1.6-11.4,6.6C307.5,560.2,307.5,561.8,307.9,563.4z"/>
		<path class="st1" d="M366.9,578.9h-6.2l-8.1-10.2h-5v10.2h-6.5v-31h13c5.3-0.2,9.8,4,9.9,9.3c0,0.3,0,0.6,0,1
			c0.4,4.5-2.5,8.6-6.8,9.6l8.4,10.6l0,0L366.9,578.9z M347.9,553.5v9.9h7.8c2.7,0,5-2.2,5-5c0-2.7-2.2-5-5-5H347.9z"/>
		<path class="st1" d="M396,563.4c1.2,7.8-4.2,15.1-12,16.2c-7.8,1.2-15.1-4.2-16.2-12c-0.2-1.4-0.2-2.8,0-4.2
			c-1.2-7.8,4.2-15.1,12-16.2c7.8-1.2,15.1,4.2,16.2,12C396.2,560.6,396.2,562,396,563.4z M372.1,563.4c0,5,4,9,9,9c5,0,9-4,9-9
			c1.3-5-1.6-10.1-6.6-11.4c-5-1.3-10.1,1.6-11.4,6.6C371.7,560.2,371.7,561.8,372.1,563.4z"/>
		<path class="st1" d="M417.8,548.2h5.3v31h-3.1l-14.3-20.8v20.8h-5.6v-31h3.1l13.3,18.9v-19.2L417.8,548.2z"/>
		<path class="st1" d="M451.6,563.4c0.9,7.7-4.7,14.6-12.3,15.4c-0.4,0-0.9,0.1-1.3,0.1h-10.9v-31h10.9c7.5-0.1,13.7,6,13.8,13.5
			C451.7,562.1,451.7,562.7,451.6,563.4z M432.3,573.3h5.6c5.4-1,9-6.1,8-11.5c-0.7-4.1-3.9-7.3-8-8h-5.6V573.3z"/>
		<path class="st1" d="M468.3,547.6c8,0.3,14.3,7.1,14,15.1c0,0.3,0,0.7-0.1,1c1.2,7.8-4.2,15.1-12,16.2c-7.8,1.2-15.1-4.2-16.2-12
			c-0.2-1.4-0.2-2.8,0-4.2c-0.9-8,4.9-15.2,12.9-16.1C467.5,547.6,467.9,547.6,468.3,547.6z M468.3,552.8c-5.3,0.3-9.4,4.8-9.1,10.1
			c0,0.4,0.1,0.7,0.1,1.1c0,5,4,9,9,9c5,0,9-4,9-9c0.9-5.2-2.7-10.2-7.9-11.1C469.1,552.9,468.7,552.9,468.3,552.8z M474.6,538.6
			H469l-2.8,5.9h4.3l4.3-5.9l0,0H474.6z"/>
		<path class="st1" d="M504,548.2h5.3v31h-3.1l-14.3-20.8v20.8h-5.3v-31h4l13.3,18.9v-19.2V548.2z"/>
		<path class="st1" d="M546.2,578.9H540l-8.1-10.2h-4.7v10.2H522v-31h13c5.3-0.2,9.8,4,9.9,9.3c0,0.3,0,0.6,0,1
			c0.4,4.5-2.5,8.6-6.8,9.6l8.4,10.6l0,0L546.2,578.9z M527.3,553.5v9.9h7.8c2.7,0,5-2.2,5-5c0-2.7-2.2-5-5-5H527.3z"/>
		<path class="st1" d="M575.1,563.4c1.2,7.8-4.2,15.1-12,16.2c-7.8,1.2-15.1-4.2-16.2-12c-0.2-1.4-0.2-2.8,0-4.2
			c-1.2-7.8,4.2-15.1,12-16.2c7.8-1.2,15.1,4.2,16.2,12C575.3,560.6,575.3,562,575.1,563.4z M552.1,563.4c0,5,4,9,9,9c5,0,9-4,9-9
			c1.3-5-1.6-10.1-6.6-11.4c-5-1.3-10.1,1.6-11.4,6.6C551.7,560.2,551.7,561.8,552.1,563.4z"/>
		<path class="st1" d="M603,563.4c0.9,7.7-4.7,14.6-12.3,15.4c-0.4,0-0.9,0.1-1.3,0.1h-10.9v-31h10.9c7.7,0.1,13.9,6.5,13.7,14.2
			C603.1,562.5,603.1,563,603,563.4z M583.8,573.3h5.6c5.4-1,9-6.1,8-11.5c-0.7-4.1-3.9-7.3-8-8h-5.6V573.3z"/>
		<path class="st1" d="M630.6,578.9h-6.2l-8.1-10.2h-5v10.2h-5.3v-31h14.3c5.3-0.2,9.8,4,9.9,9.3c0,0.3,0,0.6,0,1
			c0.4,4.5-2.5,8.6-6.8,9.6l8.4,10.6l0,0L630.6,578.9z M611.7,553.5v9.9h8.7c2.7,0,5-2.2,5-5c0-2.7-2.2-5-5-5h-7.8H611.7z"/>
		<path class="st1" d="M632.8,578.9v-31h5.3v31H632.8z M641.5,539.2h-5.6l-2.8,5.9h4.3l4.3-5.9l0,0H641.5z"/>
		<path class="st1" d="M663.2,555.6c-1.8-1.9-4.2-3-6.8-3.1c-5.5,0.3-9.7,4.9-9.4,10.4c0,0.4,0.1,0.7,0.1,1.1
			c-0.5,5.1,3.2,9.7,8.3,10.2c0.3,0,0.7,0,1,0c2.3,0.1,4.6-0.8,6.2-2.5v-5.6h-7.1v-5.3h11.8v13c-2.5,3.5-6.5,5.6-10.9,5.6
			c-7.7,0.4-14.3-5.5-14.7-13.2c0-0.9,0-1.8,0.1-2.6c-1-8.2,4.8-15.6,12.9-16.6c0.6-0.1,1.1-0.1,1.7-0.1c3.9,0,7.7,1.7,10.2,4.7
			L663.2,555.6z"/>
		<path class="st1" d="M695.2,548.2v17.7c1,6.4-3.4,12.5-9.8,13.5c-0.7,0.1-1.3,0.2-2,0.1c-6.7,0.1-12.1-5.3-12.2-12
			c0-0.6,0-1.1,0.1-1.7v-17.7h5.3v17.7c-0.7,3.9,1.9,7.6,5.8,8.3c0.4,0.1,0.9,0.1,1.4,0.1c3.9-0.1,7-3.4,6.9-7.3c0-0.3,0-0.7-0.1-1
			v-17.7h5.3H695.2z"/>
		<path class="st1" d="M720.6,578.9h-20.5v-31h20.5v5.6h-15.5v7.1H720v5.3h-14.9v6.8h15.5v5.6V578.9z"/>
		<path class="st1" d="M723.4,548.2h21.1v2.8l-14.3,22.7h14.3v5.6h-21.4v-3.4l14-22h-13.7V548.2L723.4,548.2z"/>
		<polygon class="st1" points="565.8,515 524.2,515 338,136.7 358.2,97 		"/>
		<polygon class="st2" points="70.2,515 141,515 354.5,89.2 319.4,18.8 		"/>
		<polygon class="st2" points="541.6,267 580.1,206.8 736.5,515.6 663.2,515.6 		"/>
		<polygon class="st2" points="375.2,515 153.1,515 187.8,444.5 341.7,444.5 		"/>
		<polygon class="st1" points="377.4,326.6 422.7,326.6 400.1,281 377.4,281 		"/>
		<polygon class="st2" points="567.7,82.1 421.5,82.1 378,18.5 607.7,18.5 		"/>
		<polygon class="st2" points="460,269.8 618.9,18.5 684,18.5 490.7,330.3 		"/>
		<polygon class="st1" points="242.7,431.2 197.4,431.2 335.5,146.9 356.3,196.9 		"/>
		<polygon class="st2" points="481.7,209.9 450.3,252.1 421.5,199.4 421.5,92.3 481.7,92.3 		"/>
		<polygon class="st2" points="478.9,516.2 420.6,516.2 420.6,340 478.9,441.4 		"/>
	</g>
</g>
</svg>
